<?xml version="1.0" encoding="iso-8859-1"?>
<!-- Uploaded to: SVG Repo, www.svgrepo.com, Generator: SVG Repo Mixer Tools -->
<svg fill="#000000" height="800px" width="800px" version="1.1" id="Capa_1" xmlns="http://www.w3.org/2000/svg" xmlns:xlink="http://www.w3.org/1999/xlink" 
	 viewBox="0 0 58.365 58.365" xml:space="preserve">
<path d="M57.863,26.632L29.182,0L0.502,26.632c-0.404,0.376-0.428,1.009-0.052,1.414c0.374,0.404,1.009,0.427,1.413,0.052
	l4.319-4.011v3.278v31h16v-18c0-3.866,3.134-7,7-7s7,3.134,7,7v18h16v-31v-3.278l4.319,4.011c0.192,0.179,0.437,0.267,0.681,0.267
	c0.269,0,0.536-0.107,0.732-0.319C58.291,27.641,58.267,27.008,57.863,26.632z"/>
</svg>